<mxfile host="65bd71144e">
    <diagram id="ur69tfbC66iB5Qj2hPdh" name="Page-1">
        <mxGraphModel dx="688" dy="805" grid="0" gridSize="10" guides="1" tooltips="1" connect="1" arrows="1" fold="1" page="0" pageScale="1" pageWidth="850" pageHeight="1100" background="#ffffff" math="0" shadow="0">
            <root>
                <mxCell id="0"/>
                <mxCell id="1" parent="0"/>
                <mxCell id="2" value="Doctor" style="shape=table;startSize=30;container=1;collapsible=0;childLayout=tableLayout;strokeWidth=1;strokeColor=#001DBC;fillColor=#0050ef;fontColor=#ffffff;" parent="1" vertex="1">
                    <mxGeometry x="-182" y="-77" width="180.67202620072794" height="321.13928985595703" as="geometry"/>
                </mxCell>
                <mxCell id="6" value="" style="shape=partialRectangle;collapsible=0;dropTarget=0;pointerEvents=0;fillColor=none;top=0;left=0;bottom=0;right=0;points=[[0,0.5],[1,0.5]];portConstraint=eastwest;" parent="2" vertex="1">
                    <mxGeometry y="30" width="180.67202620072794" height="35" as="geometry"/>
                </mxCell>
                <mxCell id="7" value="id" style="shape=partialRectangle;html=1;whiteSpace=wrap;connectable=0;overflow=hidden;fillColor=none;top=0;left=0;bottom=0;right=0;pointerEvents=1;fontColor=#000000;fontSize=10;" parent="6" vertex="1">
                    <mxGeometry width="85" height="35" as="geometry">
                        <mxRectangle width="85" height="35" as="alternateBounds"/>
                    </mxGeometry>
                </mxCell>
                <mxCell id="8" value="varchar" style="shape=partialRectangle;html=1;whiteSpace=wrap;connectable=0;overflow=hidden;fillColor=none;top=0;left=0;bottom=0;right=0;pointerEvents=1;fontColor=#000000;fontSize=10;" parent="6" vertex="1">
                    <mxGeometry x="85" width="96" height="35" as="geometry">
                        <mxRectangle width="96" height="35" as="alternateBounds"/>
                    </mxGeometry>
                </mxCell>
                <mxCell id="12" value="" style="shape=partialRectangle;collapsible=0;dropTarget=0;pointerEvents=0;fillColor=none;top=0;left=0;bottom=0;right=0;points=[[0,0.5],[1,0.5]];portConstraint=eastwest;" parent="2" vertex="1">
                    <mxGeometry y="65" width="180.67202620072794" height="32" as="geometry"/>
                </mxCell>
                <mxCell id="13" value="password_digest" style="shape=partialRectangle;html=1;whiteSpace=wrap;connectable=0;overflow=hidden;fillColor=none;top=0;left=0;bottom=0;right=0;pointerEvents=1;fontSize=10;fontColor=#000000;" parent="12" vertex="1">
                    <mxGeometry width="85" height="32" as="geometry">
                        <mxRectangle width="85" height="32" as="alternateBounds"/>
                    </mxGeometry>
                </mxCell>
                <mxCell id="14" value="string" style="shape=partialRectangle;html=1;whiteSpace=wrap;connectable=0;overflow=hidden;fillColor=none;top=0;left=0;bottom=0;right=0;pointerEvents=1;fontSize=10;fontColor=#000000;" parent="12" vertex="1">
                    <mxGeometry x="85" width="96" height="32" as="geometry">
                        <mxRectangle width="96" height="32" as="alternateBounds"/>
                    </mxGeometry>
                </mxCell>
                <mxCell id="15" style="shape=partialRectangle;collapsible=0;dropTarget=0;pointerEvents=0;fillColor=none;top=0;left=0;bottom=0;right=0;points=[[0,0.5],[1,0.5]];portConstraint=eastwest;" parent="2" vertex="1">
                    <mxGeometry y="97" width="180.67202620072794" height="32" as="geometry"/>
                </mxCell>
                <mxCell id="16" value="first_name" style="shape=partialRectangle;html=1;whiteSpace=wrap;connectable=0;overflow=hidden;fillColor=none;top=0;left=0;bottom=0;right=0;pointerEvents=1;fontSize=10;fontColor=#000000;" parent="15" vertex="1">
                    <mxGeometry width="85" height="32" as="geometry">
                        <mxRectangle width="85" height="32" as="alternateBounds"/>
                    </mxGeometry>
                </mxCell>
                <mxCell id="17" value="string" style="shape=partialRectangle;html=1;whiteSpace=wrap;connectable=0;overflow=hidden;fillColor=none;top=0;left=0;bottom=0;right=0;pointerEvents=1;fontSize=10;fontColor=#000000;" parent="15" vertex="1">
                    <mxGeometry x="85" width="96" height="32" as="geometry">
                        <mxRectangle width="96" height="32" as="alternateBounds"/>
                    </mxGeometry>
                </mxCell>
                <mxCell id="30" style="shape=partialRectangle;collapsible=0;dropTarget=0;pointerEvents=0;fillColor=none;top=0;left=0;bottom=0;right=0;points=[[0,0.5],[1,0.5]];portConstraint=eastwest;" parent="2" vertex="1">
                    <mxGeometry y="129" width="180.67202620072794" height="32" as="geometry"/>
                </mxCell>
                <mxCell id="31" value="last_name" style="shape=partialRectangle;html=1;whiteSpace=wrap;connectable=0;overflow=hidden;fillColor=none;top=0;left=0;bottom=0;right=0;pointerEvents=1;fontSize=10;fontColor=#000000;" parent="30" vertex="1">
                    <mxGeometry width="85" height="32" as="geometry">
                        <mxRectangle width="85" height="32" as="alternateBounds"/>
                    </mxGeometry>
                </mxCell>
                <mxCell id="32" value="string" style="shape=partialRectangle;html=1;whiteSpace=wrap;connectable=0;overflow=hidden;fillColor=none;top=0;left=0;bottom=0;right=0;pointerEvents=1;fontSize=10;fontColor=#000000;" parent="30" vertex="1">
                    <mxGeometry x="85" width="96" height="32" as="geometry">
                        <mxRectangle width="96" height="32" as="alternateBounds"/>
                    </mxGeometry>
                </mxCell>
                <mxCell id="39" style="shape=partialRectangle;collapsible=0;dropTarget=0;pointerEvents=0;fillColor=none;top=0;left=0;bottom=0;right=0;points=[[0,0.5],[1,0.5]];portConstraint=eastwest;" parent="2" vertex="1">
                    <mxGeometry y="161" width="180.67202620072794" height="32" as="geometry"/>
                </mxCell>
                <mxCell id="40" value="bio" style="shape=partialRectangle;html=1;whiteSpace=wrap;connectable=0;overflow=hidden;fillColor=none;top=0;left=0;bottom=0;right=0;pointerEvents=1;fontSize=10;fontColor=#000000;" parent="39" vertex="1">
                    <mxGeometry width="85" height="32" as="geometry">
                        <mxRectangle width="85" height="32" as="alternateBounds"/>
                    </mxGeometry>
                </mxCell>
                <mxCell id="41" value="text" style="shape=partialRectangle;html=1;whiteSpace=wrap;connectable=0;overflow=hidden;fillColor=none;top=0;left=0;bottom=0;right=0;pointerEvents=1;fontSize=10;fontColor=#000000;" parent="39" vertex="1">
                    <mxGeometry x="85" width="96" height="32" as="geometry">
                        <mxRectangle width="96" height="32" as="alternateBounds"/>
                    </mxGeometry>
                </mxCell>
                <mxCell id="128" style="shape=partialRectangle;collapsible=0;dropTarget=0;pointerEvents=0;fillColor=none;top=0;left=0;bottom=0;right=0;points=[[0,0.5],[1,0.5]];portConstraint=eastwest;" parent="2" vertex="1">
                    <mxGeometry y="193" width="180.67202620072794" height="32" as="geometry"/>
                </mxCell>
                <mxCell id="129" value="certification" style="shape=partialRectangle;html=1;whiteSpace=wrap;connectable=0;overflow=hidden;fillColor=none;top=0;left=0;bottom=0;right=0;pointerEvents=1;fontSize=10;fontColor=#000000;" parent="128" vertex="1">
                    <mxGeometry width="85" height="32" as="geometry">
                        <mxRectangle width="85" height="32" as="alternateBounds"/>
                    </mxGeometry>
                </mxCell>
                <mxCell id="130" value="string" style="shape=partialRectangle;html=1;whiteSpace=wrap;connectable=0;overflow=hidden;fillColor=none;top=0;left=0;bottom=0;right=0;pointerEvents=1;fontSize=10;fontColor=#000000;" parent="128" vertex="1">
                    <mxGeometry x="85" width="96" height="32" as="geometry">
                        <mxRectangle width="96" height="32" as="alternateBounds"/>
                    </mxGeometry>
                </mxCell>
                <mxCell id="131" style="shape=partialRectangle;collapsible=0;dropTarget=0;pointerEvents=0;fillColor=none;top=0;left=0;bottom=0;right=0;points=[[0,0.5],[1,0.5]];portConstraint=eastwest;" parent="2" vertex="1">
                    <mxGeometry y="225" width="180.67202620072794" height="32" as="geometry"/>
                </mxCell>
                <mxCell id="132" value="image" style="shape=partialRectangle;html=1;whiteSpace=wrap;connectable=0;overflow=hidden;fillColor=none;top=0;left=0;bottom=0;right=0;pointerEvents=1;fontSize=10;fontColor=#000000;" parent="131" vertex="1">
                    <mxGeometry width="85" height="32" as="geometry">
                        <mxRectangle width="85" height="32" as="alternateBounds"/>
                    </mxGeometry>
                </mxCell>
                <mxCell id="133" value="string" style="shape=partialRectangle;html=1;whiteSpace=wrap;connectable=0;overflow=hidden;fillColor=none;top=0;left=0;bottom=0;right=0;pointerEvents=1;fontSize=10;fontColor=#000000;" parent="131" vertex="1">
                    <mxGeometry x="85" width="96" height="32" as="geometry">
                        <mxRectangle width="96" height="32" as="alternateBounds"/>
                    </mxGeometry>
                </mxCell>
                <mxCell id="161" style="shape=partialRectangle;collapsible=0;dropTarget=0;pointerEvents=0;fillColor=none;top=0;left=0;bottom=0;right=0;points=[[0,0.5],[1,0.5]];portConstraint=eastwest;" parent="2" vertex="1">
                    <mxGeometry y="257" width="180.67202620072794" height="32" as="geometry"/>
                </mxCell>
                <mxCell id="162" value="email" style="shape=partialRectangle;html=1;whiteSpace=wrap;connectable=0;overflow=hidden;fillColor=none;top=0;left=0;bottom=0;right=0;pointerEvents=1;fontSize=10;fontColor=#000000;" parent="161" vertex="1">
                    <mxGeometry width="85" height="32" as="geometry">
                        <mxRectangle width="85" height="32" as="alternateBounds"/>
                    </mxGeometry>
                </mxCell>
                <mxCell id="163" value="string" style="shape=partialRectangle;html=1;whiteSpace=wrap;connectable=0;overflow=hidden;fillColor=none;top=0;left=0;bottom=0;right=0;pointerEvents=1;fontSize=10;fontColor=#000000;" parent="161" vertex="1">
                    <mxGeometry x="85" width="96" height="32" as="geometry">
                        <mxRectangle width="96" height="32" as="alternateBounds"/>
                    </mxGeometry>
                </mxCell>
                <mxCell id="164" style="shape=partialRectangle;collapsible=0;dropTarget=0;pointerEvents=0;fillColor=none;top=0;left=0;bottom=0;right=0;points=[[0,0.5],[1,0.5]];portConstraint=eastwest;" parent="2" vertex="1">
                    <mxGeometry y="289" width="180.67202620072794" height="32" as="geometry"/>
                </mxCell>
                <mxCell id="165" value="phone" style="shape=partialRectangle;html=1;whiteSpace=wrap;connectable=0;overflow=hidden;fillColor=none;top=0;left=0;bottom=0;right=0;pointerEvents=1;fontSize=10;fontColor=#000000;" parent="164" vertex="1">
                    <mxGeometry width="85" height="32" as="geometry">
                        <mxRectangle width="85" height="32" as="alternateBounds"/>
                    </mxGeometry>
                </mxCell>
                <mxCell id="166" value="string" style="shape=partialRectangle;html=1;whiteSpace=wrap;connectable=0;overflow=hidden;fillColor=none;top=0;left=0;bottom=0;right=0;pointerEvents=1;fontSize=10;fontColor=#000000;" parent="164" vertex="1">
                    <mxGeometry x="85" width="96" height="32" as="geometry">
                        <mxRectangle width="96" height="32" as="alternateBounds"/>
                    </mxGeometry>
                </mxCell>
                <mxCell id="143" style="edgeStyle=orthogonalEdgeStyle;html=1;exitX=0;exitY=0.5;exitDx=0;exitDy=0;entryX=1;entryY=0.5;entryDx=0;entryDy=0;fontColor=#000000;strokeColor=#000000;endArrow=none;endFill=0;startArrow=ERmany;startFill=0;" parent="1" source="81" target="6" edge="1">
                    <mxGeometry relative="1" as="geometry"/>
                </mxCell>
                <mxCell id="71" value="Appointment" style="shape=table;startSize=30;container=1;collapsible=0;childLayout=tableLayout;strokeWidth=1;strokeColor=#005700;fillColor=#008a00;fontColor=#ffffff;" parent="1" vertex="1">
                    <mxGeometry x="106" y="-77" width="180.67202620072794" height="227" as="geometry"/>
                </mxCell>
                <mxCell id="72" value="" style="shape=partialRectangle;collapsible=0;dropTarget=0;pointerEvents=0;fillColor=none;top=0;left=0;bottom=0;right=0;points=[[0,0.5],[1,0.5]];portConstraint=eastwest;" parent="71" vertex="1">
                    <mxGeometry y="30" width="180.67202620072794" height="35" as="geometry"/>
                </mxCell>
                <mxCell id="73" value="id" style="shape=partialRectangle;html=1;whiteSpace=wrap;connectable=0;overflow=hidden;fillColor=none;top=0;left=0;bottom=0;right=0;pointerEvents=1;fontColor=#000000;fontSize=10;" parent="72" vertex="1">
                    <mxGeometry width="85" height="35" as="geometry">
                        <mxRectangle width="85" height="35" as="alternateBounds"/>
                    </mxGeometry>
                </mxCell>
                <mxCell id="74" value="varchar" style="shape=partialRectangle;html=1;whiteSpace=wrap;connectable=0;overflow=hidden;fillColor=none;top=0;left=0;bottom=0;right=0;pointerEvents=1;fontColor=#000000;fontSize=10;" parent="72" vertex="1">
                    <mxGeometry x="85" width="96" height="35" as="geometry">
                        <mxRectangle width="96" height="35" as="alternateBounds"/>
                    </mxGeometry>
                </mxCell>
                <mxCell id="75" value="" style="shape=partialRectangle;collapsible=0;dropTarget=0;pointerEvents=0;fillColor=none;top=0;left=0;bottom=0;right=0;points=[[0,0.5],[1,0.5]];portConstraint=eastwest;" parent="71" vertex="1">
                    <mxGeometry y="65" width="180.67202620072794" height="34" as="geometry"/>
                </mxCell>
                <mxCell id="76" value="date" style="shape=partialRectangle;html=1;whiteSpace=wrap;connectable=0;overflow=hidden;fillColor=none;top=0;left=0;bottom=0;right=0;pointerEvents=1;fontSize=10;fontColor=#000000;" parent="75" vertex="1">
                    <mxGeometry width="85" height="34" as="geometry">
                        <mxRectangle width="85" height="34" as="alternateBounds"/>
                    </mxGeometry>
                </mxCell>
                <mxCell id="77" value="string" style="shape=partialRectangle;html=1;whiteSpace=wrap;connectable=0;overflow=hidden;fillColor=none;top=0;left=0;bottom=0;right=0;pointerEvents=1;fontSize=10;fontColor=#000000;" parent="75" vertex="1">
                    <mxGeometry x="85" width="96" height="34" as="geometry">
                        <mxRectangle width="96" height="34" as="alternateBounds"/>
                    </mxGeometry>
                </mxCell>
                <mxCell id="78" value="" style="shape=partialRectangle;collapsible=0;dropTarget=0;pointerEvents=0;fillColor=none;top=0;left=0;bottom=0;right=0;points=[[0,0.5],[1,0.5]];portConstraint=eastwest;" parent="71" vertex="1">
                    <mxGeometry y="99" width="180.67202620072794" height="32" as="geometry"/>
                </mxCell>
                <mxCell id="79" value="time" style="shape=partialRectangle;html=1;whiteSpace=wrap;connectable=0;overflow=hidden;fillColor=none;top=0;left=0;bottom=0;right=0;pointerEvents=1;fontSize=10;fontColor=#000000;" parent="78" vertex="1">
                    <mxGeometry width="85" height="32" as="geometry">
                        <mxRectangle width="85" height="32" as="alternateBounds"/>
                    </mxGeometry>
                </mxCell>
                <mxCell id="80" value="string" style="shape=partialRectangle;html=1;whiteSpace=wrap;connectable=0;overflow=hidden;fillColor=none;top=0;left=0;bottom=0;right=0;pointerEvents=1;fontSize=10;fontColor=#000000;" parent="78" vertex="1">
                    <mxGeometry x="85" width="96" height="32" as="geometry">
                        <mxRectangle width="96" height="32" as="alternateBounds"/>
                    </mxGeometry>
                </mxCell>
                <mxCell id="81" style="shape=partialRectangle;collapsible=0;dropTarget=0;pointerEvents=0;fillColor=none;top=0;left=0;bottom=0;right=0;points=[[0,0.5],[1,0.5]];portConstraint=eastwest;" parent="71" vertex="1">
                    <mxGeometry y="131" width="180.67202620072794" height="32" as="geometry"/>
                </mxCell>
                <mxCell id="82" value="doctor_id" style="shape=partialRectangle;html=1;whiteSpace=wrap;connectable=0;overflow=hidden;fillColor=none;top=0;left=0;bottom=0;right=0;pointerEvents=1;fontSize=10;fontColor=#000000;" parent="81" vertex="1">
                    <mxGeometry width="85" height="32" as="geometry">
                        <mxRectangle width="85" height="32" as="alternateBounds"/>
                    </mxGeometry>
                </mxCell>
                <mxCell id="83" value="integer" style="shape=partialRectangle;html=1;whiteSpace=wrap;connectable=0;overflow=hidden;fillColor=none;top=0;left=0;bottom=0;right=0;pointerEvents=1;fontSize=10;fontColor=#000000;" parent="81" vertex="1">
                    <mxGeometry x="85" width="96" height="32" as="geometry">
                        <mxRectangle width="96" height="32" as="alternateBounds"/>
                    </mxGeometry>
                </mxCell>
                <mxCell id="84" style="shape=partialRectangle;collapsible=0;dropTarget=0;pointerEvents=0;fillColor=none;top=0;left=0;bottom=0;right=0;points=[[0,0.5],[1,0.5]];portConstraint=eastwest;" parent="71" vertex="1">
                    <mxGeometry y="163" width="180.67202620072794" height="32" as="geometry"/>
                </mxCell>
                <mxCell id="85" value="patient_id" style="shape=partialRectangle;html=1;whiteSpace=wrap;connectable=0;overflow=hidden;fillColor=none;top=0;left=0;bottom=0;right=0;pointerEvents=1;fontSize=10;fontColor=#000000;" parent="84" vertex="1">
                    <mxGeometry width="85" height="32" as="geometry">
                        <mxRectangle width="85" height="32" as="alternateBounds"/>
                    </mxGeometry>
                </mxCell>
                <mxCell id="86" value="integer" style="shape=partialRectangle;html=1;whiteSpace=wrap;connectable=0;overflow=hidden;fillColor=none;top=0;left=0;bottom=0;right=0;pointerEvents=1;fontSize=10;fontColor=#000000;" parent="84" vertex="1">
                    <mxGeometry x="85" width="96" height="32" as="geometry">
                        <mxRectangle width="96" height="32" as="alternateBounds"/>
                    </mxGeometry>
                </mxCell>
                <mxCell id="145" style="shape=partialRectangle;collapsible=0;dropTarget=0;pointerEvents=0;fillColor=none;top=0;left=0;bottom=0;right=0;points=[[0,0.5],[1,0.5]];portConstraint=eastwest;" parent="71" vertex="1">
                    <mxGeometry y="195" width="180.67202620072794" height="32" as="geometry"/>
                </mxCell>
                <mxCell id="146" value="notes" style="shape=partialRectangle;html=1;whiteSpace=wrap;connectable=0;overflow=hidden;fillColor=none;top=0;left=0;bottom=0;right=0;pointerEvents=1;fontSize=10;fontColor=#000000;" parent="145" vertex="1">
                    <mxGeometry width="85" height="32" as="geometry">
                        <mxRectangle width="85" height="32" as="alternateBounds"/>
                    </mxGeometry>
                </mxCell>
                <mxCell id="147" value="text" style="shape=partialRectangle;html=1;whiteSpace=wrap;connectable=0;overflow=hidden;fillColor=none;top=0;left=0;bottom=0;right=0;pointerEvents=1;fontSize=10;fontColor=#000000;" parent="145" vertex="1">
                    <mxGeometry x="85" width="96" height="32" as="geometry">
                        <mxRectangle width="96" height="32" as="alternateBounds"/>
                    </mxGeometry>
                </mxCell>
                <mxCell id="90" value="Patient" style="shape=table;startSize=30;container=1;collapsible=0;childLayout=tableLayout;strokeWidth=1;strokeColor=#A50040;fillColor=#d80073;fontColor=#ffffff;" parent="1" vertex="1">
                    <mxGeometry x="425" y="-77" width="180.67202620072794" height="259" as="geometry"/>
                </mxCell>
                <mxCell id="91" value="" style="shape=partialRectangle;collapsible=0;dropTarget=0;pointerEvents=0;fillColor=none;top=0;left=0;bottom=0;right=0;points=[[0,0.5],[1,0.5]];portConstraint=eastwest;" parent="90" vertex="1">
                    <mxGeometry y="30" width="180.67202620072794" height="35" as="geometry"/>
                </mxCell>
                <mxCell id="92" value="id" style="shape=partialRectangle;html=1;whiteSpace=wrap;connectable=0;overflow=hidden;fillColor=none;top=0;left=0;bottom=0;right=0;pointerEvents=1;fontColor=#000000;fontSize=10;" parent="91" vertex="1">
                    <mxGeometry width="85" height="35" as="geometry">
                        <mxRectangle width="85" height="35" as="alternateBounds"/>
                    </mxGeometry>
                </mxCell>
                <mxCell id="93" value="varchar" style="shape=partialRectangle;html=1;whiteSpace=wrap;connectable=0;overflow=hidden;fillColor=none;top=0;left=0;bottom=0;right=0;pointerEvents=1;fontColor=#000000;fontSize=10;" parent="91" vertex="1">
                    <mxGeometry x="85" width="96" height="35" as="geometry">
                        <mxRectangle width="96" height="35" as="alternateBounds"/>
                    </mxGeometry>
                </mxCell>
                <mxCell id="94" value="" style="shape=partialRectangle;collapsible=0;dropTarget=0;pointerEvents=0;fillColor=none;top=0;left=0;bottom=0;right=0;points=[[0,0.5],[1,0.5]];portConstraint=eastwest;" parent="90" vertex="1">
                    <mxGeometry y="65" width="180.67202620072794" height="34" as="geometry"/>
                </mxCell>
                <mxCell id="95" value="email" style="shape=partialRectangle;html=1;whiteSpace=wrap;connectable=0;overflow=hidden;fillColor=none;top=0;left=0;bottom=0;right=0;pointerEvents=1;fontSize=10;fontColor=#000000;" parent="94" vertex="1">
                    <mxGeometry width="85" height="34" as="geometry">
                        <mxRectangle width="85" height="34" as="alternateBounds"/>
                    </mxGeometry>
                </mxCell>
                <mxCell id="96" value="string" style="shape=partialRectangle;html=1;whiteSpace=wrap;connectable=0;overflow=hidden;fillColor=none;top=0;left=0;bottom=0;right=0;pointerEvents=1;fontSize=10;fontColor=#000000;" parent="94" vertex="1">
                    <mxGeometry x="85" width="96" height="34" as="geometry">
                        <mxRectangle width="96" height="34" as="alternateBounds"/>
                    </mxGeometry>
                </mxCell>
                <mxCell id="97" value="" style="shape=partialRectangle;collapsible=0;dropTarget=0;pointerEvents=0;fillColor=none;top=0;left=0;bottom=0;right=0;points=[[0,0.5],[1,0.5]];portConstraint=eastwest;" parent="90" vertex="1">
                    <mxGeometry y="99" width="180.67202620072794" height="32" as="geometry"/>
                </mxCell>
                <mxCell id="98" value="password_digest" style="shape=partialRectangle;html=1;whiteSpace=wrap;connectable=0;overflow=hidden;fillColor=none;top=0;left=0;bottom=0;right=0;pointerEvents=1;fontSize=10;fontColor=#000000;" parent="97" vertex="1">
                    <mxGeometry width="85" height="32" as="geometry">
                        <mxRectangle width="85" height="32" as="alternateBounds"/>
                    </mxGeometry>
                </mxCell>
                <mxCell id="99" value="string" style="shape=partialRectangle;html=1;whiteSpace=wrap;connectable=0;overflow=hidden;fillColor=none;top=0;left=0;bottom=0;right=0;pointerEvents=1;fontSize=10;fontColor=#000000;" parent="97" vertex="1">
                    <mxGeometry x="85" width="96" height="32" as="geometry">
                        <mxRectangle width="96" height="32" as="alternateBounds"/>
                    </mxGeometry>
                </mxCell>
                <mxCell id="100" style="shape=partialRectangle;collapsible=0;dropTarget=0;pointerEvents=0;fillColor=none;top=0;left=0;bottom=0;right=0;points=[[0,0.5],[1,0.5]];portConstraint=eastwest;" parent="90" vertex="1">
                    <mxGeometry y="131" width="180.67202620072794" height="32" as="geometry"/>
                </mxCell>
                <mxCell id="101" value="first_name" style="shape=partialRectangle;html=1;whiteSpace=wrap;connectable=0;overflow=hidden;fillColor=none;top=0;left=0;bottom=0;right=0;pointerEvents=1;fontSize=10;fontColor=#000000;" parent="100" vertex="1">
                    <mxGeometry width="85" height="32" as="geometry">
                        <mxRectangle width="85" height="32" as="alternateBounds"/>
                    </mxGeometry>
                </mxCell>
                <mxCell id="102" value="string" style="shape=partialRectangle;html=1;whiteSpace=wrap;connectable=0;overflow=hidden;fillColor=none;top=0;left=0;bottom=0;right=0;pointerEvents=1;fontSize=10;fontColor=#000000;" parent="100" vertex="1">
                    <mxGeometry x="85" width="96" height="32" as="geometry">
                        <mxRectangle width="96" height="32" as="alternateBounds"/>
                    </mxGeometry>
                </mxCell>
                <mxCell id="103" style="shape=partialRectangle;collapsible=0;dropTarget=0;pointerEvents=0;fillColor=none;top=0;left=0;bottom=0;right=0;points=[[0,0.5],[1,0.5]];portConstraint=eastwest;" parent="90" vertex="1">
                    <mxGeometry y="163" width="180.67202620072794" height="32" as="geometry"/>
                </mxCell>
                <mxCell id="104" value="last_name" style="shape=partialRectangle;html=1;whiteSpace=wrap;connectable=0;overflow=hidden;fillColor=none;top=0;left=0;bottom=0;right=0;pointerEvents=1;fontSize=10;fontColor=#000000;" parent="103" vertex="1">
                    <mxGeometry width="85" height="32" as="geometry">
                        <mxRectangle width="85" height="32" as="alternateBounds"/>
                    </mxGeometry>
                </mxCell>
                <mxCell id="105" value="string" style="shape=partialRectangle;html=1;whiteSpace=wrap;connectable=0;overflow=hidden;fillColor=none;top=0;left=0;bottom=0;right=0;pointerEvents=1;fontSize=10;fontColor=#000000;" parent="103" vertex="1">
                    <mxGeometry x="85" width="96" height="32" as="geometry">
                        <mxRectangle width="96" height="32" as="alternateBounds"/>
                    </mxGeometry>
                </mxCell>
                <mxCell id="106" style="shape=partialRectangle;collapsible=0;dropTarget=0;pointerEvents=0;fillColor=none;top=0;left=0;bottom=0;right=0;points=[[0,0.5],[1,0.5]];portConstraint=eastwest;" parent="90" vertex="1">
                    <mxGeometry y="195" width="180.67202620072794" height="32" as="geometry"/>
                </mxCell>
                <mxCell id="107" value="status" style="shape=partialRectangle;html=1;whiteSpace=wrap;connectable=0;overflow=hidden;fillColor=none;top=0;left=0;bottom=0;right=0;pointerEvents=1;fontSize=10;fontColor=#000000;" parent="106" vertex="1">
                    <mxGeometry width="85" height="32" as="geometry">
                        <mxRectangle width="85" height="32" as="alternateBounds"/>
                    </mxGeometry>
                </mxCell>
                <mxCell id="108" value="text" style="shape=partialRectangle;html=1;whiteSpace=wrap;connectable=0;overflow=hidden;fillColor=none;top=0;left=0;bottom=0;right=0;pointerEvents=1;fontSize=10;fontColor=#000000;" parent="106" vertex="1">
                    <mxGeometry x="85" width="96" height="32" as="geometry">
                        <mxRectangle width="96" height="32" as="alternateBounds"/>
                    </mxGeometry>
                </mxCell>
                <mxCell id="150" style="shape=partialRectangle;collapsible=0;dropTarget=0;pointerEvents=0;fillColor=none;top=0;left=0;bottom=0;right=0;points=[[0,0.5],[1,0.5]];portConstraint=eastwest;" parent="90" vertex="1">
                    <mxGeometry y="227" width="180.67202620072794" height="32" as="geometry"/>
                </mxCell>
                <mxCell id="151" value="phone" style="shape=partialRectangle;html=1;whiteSpace=wrap;connectable=0;overflow=hidden;fillColor=none;top=0;left=0;bottom=0;right=0;pointerEvents=1;fontSize=10;fontColor=#000000;" parent="150" vertex="1">
                    <mxGeometry width="85" height="32" as="geometry">
                        <mxRectangle width="85" height="32" as="alternateBounds"/>
                    </mxGeometry>
                </mxCell>
                <mxCell id="152" value="string" style="shape=partialRectangle;html=1;whiteSpace=wrap;connectable=0;overflow=hidden;fillColor=none;top=0;left=0;bottom=0;right=0;pointerEvents=1;fontSize=10;fontColor=#000000;" parent="150" vertex="1">
                    <mxGeometry x="85" width="96" height="32" as="geometry">
                        <mxRectangle width="96" height="32" as="alternateBounds"/>
                    </mxGeometry>
                </mxCell>
                <mxCell id="109" value="Admin" style="shape=table;startSize=30;container=1;collapsible=0;childLayout=tableLayout;strokeWidth=1;strokeColor=#C73500;fillColor=#fa6800;fontColor=#FFFFFF;" parent="1" vertex="1">
                    <mxGeometry x="113" y="202" width="180.67202620072794" height="195" as="geometry"/>
                </mxCell>
                <mxCell id="110" value="" style="shape=partialRectangle;collapsible=0;dropTarget=0;pointerEvents=0;fillColor=none;top=0;left=0;bottom=0;right=0;points=[[0,0.5],[1,0.5]];portConstraint=eastwest;" parent="109" vertex="1">
                    <mxGeometry y="30" width="180.67202620072794" height="35" as="geometry"/>
                </mxCell>
                <mxCell id="111" value="id" style="shape=partialRectangle;html=1;whiteSpace=wrap;connectable=0;overflow=hidden;fillColor=none;top=0;left=0;bottom=0;right=0;pointerEvents=1;fontColor=#000000;fontSize=10;" parent="110" vertex="1">
                    <mxGeometry width="85" height="35" as="geometry">
                        <mxRectangle width="85" height="35" as="alternateBounds"/>
                    </mxGeometry>
                </mxCell>
                <mxCell id="112" value="varchar" style="shape=partialRectangle;html=1;whiteSpace=wrap;connectable=0;overflow=hidden;fillColor=none;top=0;left=0;bottom=0;right=0;pointerEvents=1;fontColor=#000000;fontSize=10;" parent="110" vertex="1">
                    <mxGeometry x="85" width="96" height="35" as="geometry">
                        <mxRectangle width="96" height="35" as="alternateBounds"/>
                    </mxGeometry>
                </mxCell>
                <mxCell id="113" value="" style="shape=partialRectangle;collapsible=0;dropTarget=0;pointerEvents=0;fillColor=none;top=0;left=0;bottom=0;right=0;points=[[0,0.5],[1,0.5]];portConstraint=eastwest;" parent="109" vertex="1">
                    <mxGeometry y="65" width="180.67202620072794" height="34" as="geometry"/>
                </mxCell>
                <mxCell id="114" value="email" style="shape=partialRectangle;html=1;whiteSpace=wrap;connectable=0;overflow=hidden;fillColor=none;top=0;left=0;bottom=0;right=0;pointerEvents=1;fontSize=10;fontColor=#000000;" parent="113" vertex="1">
                    <mxGeometry width="85" height="34" as="geometry">
                        <mxRectangle width="85" height="34" as="alternateBounds"/>
                    </mxGeometry>
                </mxCell>
                <mxCell id="115" value="string" style="shape=partialRectangle;html=1;whiteSpace=wrap;connectable=0;overflow=hidden;fillColor=none;top=0;left=0;bottom=0;right=0;pointerEvents=1;fontSize=10;fontColor=#000000;" parent="113" vertex="1">
                    <mxGeometry x="85" width="96" height="34" as="geometry">
                        <mxRectangle width="96" height="34" as="alternateBounds"/>
                    </mxGeometry>
                </mxCell>
                <mxCell id="116" value="" style="shape=partialRectangle;collapsible=0;dropTarget=0;pointerEvents=0;fillColor=none;top=0;left=0;bottom=0;right=0;points=[[0,0.5],[1,0.5]];portConstraint=eastwest;" parent="109" vertex="1">
                    <mxGeometry y="99" width="180.67202620072794" height="32" as="geometry"/>
                </mxCell>
                <mxCell id="117" value="password_digest" style="shape=partialRectangle;html=1;whiteSpace=wrap;connectable=0;overflow=hidden;fillColor=none;top=0;left=0;bottom=0;right=0;pointerEvents=1;fontSize=10;fontColor=#000000;" parent="116" vertex="1">
                    <mxGeometry width="85" height="32" as="geometry">
                        <mxRectangle width="85" height="32" as="alternateBounds"/>
                    </mxGeometry>
                </mxCell>
                <mxCell id="118" value="string" style="shape=partialRectangle;html=1;whiteSpace=wrap;connectable=0;overflow=hidden;fillColor=none;top=0;left=0;bottom=0;right=0;pointerEvents=1;fontSize=10;fontColor=#000000;" parent="116" vertex="1">
                    <mxGeometry x="85" width="96" height="32" as="geometry">
                        <mxRectangle width="96" height="32" as="alternateBounds"/>
                    </mxGeometry>
                </mxCell>
                <mxCell id="119" style="shape=partialRectangle;collapsible=0;dropTarget=0;pointerEvents=0;fillColor=none;top=0;left=0;bottom=0;right=0;points=[[0,0.5],[1,0.5]];portConstraint=eastwest;" parent="109" vertex="1">
                    <mxGeometry y="131" width="180.67202620072794" height="32" as="geometry"/>
                </mxCell>
                <mxCell id="120" value="first_name" style="shape=partialRectangle;html=1;whiteSpace=wrap;connectable=0;overflow=hidden;fillColor=none;top=0;left=0;bottom=0;right=0;pointerEvents=1;fontSize=10;fontColor=#000000;" parent="119" vertex="1">
                    <mxGeometry width="85" height="32" as="geometry">
                        <mxRectangle width="85" height="32" as="alternateBounds"/>
                    </mxGeometry>
                </mxCell>
                <mxCell id="121" value="string" style="shape=partialRectangle;html=1;whiteSpace=wrap;connectable=0;overflow=hidden;fillColor=none;top=0;left=0;bottom=0;right=0;pointerEvents=1;fontSize=10;fontColor=#000000;" parent="119" vertex="1">
                    <mxGeometry x="85" width="96" height="32" as="geometry">
                        <mxRectangle width="96" height="32" as="alternateBounds"/>
                    </mxGeometry>
                </mxCell>
                <mxCell id="122" style="shape=partialRectangle;collapsible=0;dropTarget=0;pointerEvents=0;fillColor=none;top=0;left=0;bottom=0;right=0;points=[[0,0.5],[1,0.5]];portConstraint=eastwest;" parent="109" vertex="1">
                    <mxGeometry y="163" width="180.67202620072794" height="32" as="geometry"/>
                </mxCell>
                <mxCell id="123" value="last_name" style="shape=partialRectangle;html=1;whiteSpace=wrap;connectable=0;overflow=hidden;fillColor=none;top=0;left=0;bottom=0;right=0;pointerEvents=1;fontSize=10;fontColor=#000000;" parent="122" vertex="1">
                    <mxGeometry width="85" height="32" as="geometry">
                        <mxRectangle width="85" height="32" as="alternateBounds"/>
                    </mxGeometry>
                </mxCell>
                <mxCell id="124" value="string" style="shape=partialRectangle;html=1;whiteSpace=wrap;connectable=0;overflow=hidden;fillColor=none;top=0;left=0;bottom=0;right=0;pointerEvents=1;fontSize=10;fontColor=#000000;" parent="122" vertex="1">
                    <mxGeometry x="85" width="96" height="32" as="geometry">
                        <mxRectangle width="96" height="32" as="alternateBounds"/>
                    </mxGeometry>
                </mxCell>
                <mxCell id="144" style="edgeStyle=orthogonalEdgeStyle;html=1;exitX=1;exitY=0.5;exitDx=0;exitDy=0;entryX=0;entryY=0.5;entryDx=0;entryDy=0;fontColor=#000000;strokeColor=#000000;endArrow=none;endFill=0;startArrow=ERmany;startFill=0;" parent="1" source="84" target="91" edge="1">
                    <mxGeometry relative="1" as="geometry"/>
                </mxCell>
                <mxCell id="148" value="&lt;font color=&quot;#000000&quot;&gt;Doctor has many&lt;br&gt;Appointments&lt;br&gt;&lt;/font&gt;" style="text;html=1;strokeColor=none;fillColor=none;align=center;verticalAlign=middle;whiteSpace=wrap;rounded=0;fontColor=#FFFFFF;" parent="1" vertex="1">
                    <mxGeometry x="15" y="90" width="60" height="78" as="geometry"/>
                </mxCell>
                <mxCell id="149" value="&lt;font color=&quot;#000000&quot;&gt;Patient has many Appointments&lt;br&gt;&lt;/font&gt;" style="text;html=1;strokeColor=none;fillColor=none;align=center;verticalAlign=middle;whiteSpace=wrap;rounded=0;fontColor=#FFFFFF;" parent="1" vertex="1">
                    <mxGeometry x="337" y="116" width="60" height="78" as="geometry"/>
                </mxCell>
            </root>
        </mxGraphModel>
    </diagram>
</mxfile>